<svg width="40" height="40" viewBox="0 0 40 40" fill="none" xmlns="http://www.w3.org/2000/svg">
<g filter="url(#filter0_d_1_371)">
<circle cx="20" cy="20" r="16" fill="url(#paint0_linear_1_371)"/>
<path fill-rule="evenodd" clip-rule="evenodd" d="M13.1429 24.5714H17.7143V25.7143H13.1429C12.512 25.7136 12.0007 25.2023 12 24.5714V13.1429C12.0006 12.5119 12.5119 12.0006 13.1429 12H24.5714C25.2023 12.0007 25.7136 12.512 25.7143 13.1429V16.5714H24.5714V13.1429H13.1429V19.5246L15.1919 17.4757C15.6382 17.0295 16.3618 17.0295 16.8081 17.4757L20 20.6674L19.1919 21.4777L16 18.2857L13.1429 21.1409V24.5714ZM22.2857 16C22.2857 16.9468 21.5182 17.7143 20.5714 17.7143C19.6251 17.7132 18.8582 16.9463 18.8571 16C18.8571 15.0532 19.6247 14.2857 20.5714 14.2857C21.5182 14.2857 22.2857 15.0532 22.2857 16ZM21.1429 16C21.1429 15.6844 20.887 15.4286 20.5714 15.4286C20.256 15.4289 20.0003 15.6845 20 16C20 16.3156 20.2558 16.5714 20.5714 16.5714C20.887 16.5714 21.1429 16.3156 21.1429 16ZM21.5234 20.711C22.1116 19.5705 23.2883 18.8549 24.5714 18.8571C26.0519 18.8564 27.3655 19.8064 27.8283 21.2127C28.2912 22.6189 27.7987 24.1634 26.6072 25.0421C25.4157 25.9208 23.7946 25.935 22.5879 25.0773L19.6652 28L18.8571 27.1919L21.78 24.2693C21.0343 23.225 20.9352 21.8514 21.5234 20.711ZM22.2857 22.2857C22.2857 23.5481 23.3091 24.5714 24.5714 24.5714C25.8332 24.57 26.8557 23.5475 26.8571 22.2857C26.8571 21.0233 25.8338 20 24.5714 20C23.3091 20 22.2857 21.0233 22.2857 22.2857Z" fill="url(#paint1_linear_1_371)"/>
</g>
<defs>
<filter id="filter0_d_1_371" x="0" y="0" width="40" height="40" filterUnits="userSpaceOnUse" color-interpolation-filters="sRGB">
<feFlood flood-opacity="0" result="BackgroundImageFix"/>
<feColorMatrix in="SourceAlpha" type="matrix" values="0 0 0 0 0 0 0 0 0 0 0 0 0 0 0 0 0 0 127 0" result="hardAlpha"/>
<feOffset/>
<feGaussianBlur stdDeviation="2"/>
<feColorMatrix type="matrix" values="0 0 0 0 0.333333 0 0 0 0 0.337255 0 0 0 0 0.419608 0 0 0 0.502974 0"/>
<feBlend mode="normal" in2="BackgroundImageFix" result="effect1_dropShadow_1_371"/>
<feBlend mode="normal" in="SourceGraphic" in2="effect1_dropShadow_1_371" result="shape"/>
</filter>
<linearGradient id="paint0_linear_1_371" x1="4" y1="4" x2="4" y2="36" gradientUnits="userSpaceOnUse">
<stop stop-color="#FAFAFA"/>
<stop offset="1" stop-color="#E9E9EC"/>
</linearGradient>
<linearGradient id="paint1_linear_1_371" x1="12" y1="12" x2="12" y2="28" gradientUnits="userSpaceOnUse">
<stop stop-color="#AAABB5"/>
<stop offset="1" stop-color="#55566B"/>
</linearGradient>
</defs>
</svg>
