<svg width="32" height="33" viewBox="0 0 32 33" fill="none" xmlns="http://www.w3.org/2000/svg">
<circle cx="16" cy="16.5652" r="16" fill="#F3F3F5"/>
<path fill-rule="evenodd" clip-rule="evenodd" d="M18.3528 19.9362C18.8911 19.2586 19.7078 18.8618 20.5732 18.8574C22.1493 18.8574 23.427 20.1352 23.427 21.7113C23.427 23.2875 22.1493 24.5652 20.5732 24.5652C18.997 24.5652 17.7193 23.2875 17.7193 21.7113C17.722 21.4561 17.7604 21.2025 17.8334 20.9579L13.661 18.3494C12.906 19.2999 11.6325 19.6688 10.4864 19.269C9.3403 18.8692 8.57251 17.7881 8.57251 16.5743C8.57251 15.3605 9.3403 14.2795 10.4864 13.8797C11.6325 13.4799 12.906 13.8488 13.661 14.7992L17.8334 12.1908C17.7604 11.9462 17.722 11.6926 17.7193 11.4373C17.7105 10.0456 18.7069 8.85056 20.0775 8.60886C21.4481 8.36716 22.7931 9.14932 23.2609 10.4601C23.7287 11.7708 23.1829 13.2279 21.969 13.9086C20.7551 14.5893 19.2272 14.2952 18.3528 13.2124L14.1804 15.8209C14.3325 16.3117 14.3325 16.837 14.1804 17.3278L18.3528 19.9362ZM22.2855 11.4373C22.2855 10.4916 21.5189 9.725 20.5732 9.725C19.6275 9.725 18.8608 10.4916 18.8608 11.4373C18.8608 12.383 19.6275 13.1497 20.5732 13.1497C21.5189 13.1497 22.2855 12.383 22.2855 11.4373ZM11.4407 18.2867C10.495 18.2867 9.72838 17.52 9.72838 16.5743C9.72838 15.6286 10.495 14.862 11.4407 14.862C12.3864 14.862 13.153 15.6286 13.153 16.5743C13.153 17.52 12.3864 18.2867 11.4407 18.2867ZM18.8608 21.7113C18.8608 22.657 19.6275 23.4237 20.5732 23.4237C21.5189 23.4237 22.2855 22.657 22.2855 21.7113C22.2855 20.7656 21.5189 19.999 20.5732 19.999C19.6275 19.999 18.8608 20.7656 18.8608 21.7113Z" fill="url(#paint0_linear_1_349)"/>
<defs>
<linearGradient id="paint0_linear_1_349" x1="8.57251" y1="8.56522" x2="8.57251" y2="24.5652" gradientUnits="userSpaceOnUse">
<stop stop-color="#AAABB5"/>
<stop offset="1" stop-color="#55566B"/>
</linearGradient>
</defs>
</svg>
