<svg width="96" height="96" viewBox="0 0 96 96" fill="none" xmlns="http://www.w3.org/2000/svg">
<circle cx="48" cy="48" r="48" fill="url(#paint0_linear_13_689)"/>
<path fill-rule="evenodd" clip-rule="evenodd" d="M30.7031 54.4395V49.5C30.7031 49.0862 30.3669 48.75 29.9531 48.75H27.75C26.5093 48.75 25.5 47.7407 25.5 46.5V31.5C25.5 30.2593 26.5093 29.25 27.75 29.25H46.5C47.7407 29.25 48.75 30.2593 48.75 31.5V39.0758C47.0405 39.4241 45.75 40.9391 45.75 42.75V48.75H36.7031C36.5043 48.75 36.3135 48.8291 36.1728 48.9698L30.7031 54.4395ZM70.5 57.75C70.5 58.9907 69.4907 60 68.25 60H66.0469C65.6323 60 65.2969 60.3362 65.2969 60.75V65.6895L59.8272 60.2197C59.6865 60.0791 59.4953 60 59.2969 60H49.5C48.2593 60 47.25 58.9907 47.25 57.75V42.75C47.25 41.773 47.8773 40.9409 48.75 40.6311C48.9851 40.5476 49.2363 40.5 49.5 40.5H68.25C69.4907 40.5 70.5 41.5093 70.5 42.75V57.75ZM68.25 39H50.25V31.5C50.25 29.4324 48.5676 27.75 46.5 27.75H27.75C25.6816 27.75 24 29.4324 24 31.5V46.5C24 48.5676 25.6824 50.25 27.75 50.25H29.2031V56.25C29.2031 56.5532 29.3855 56.8268 29.666 56.9429C29.7583 56.9813 29.8561 57 29.9528 57C30.148 57 30.3398 56.9238 30.4834 56.7803L37.0137 50.25H45.75V57.75C45.75 59.8176 47.4324 61.5 49.5 61.5H58.9863L65.5166 68.0303C65.6602 68.1739 65.8513 68.25 66.0469 68.25C66.1436 68.25 66.241 68.2313 66.334 68.1929C66.6138 68.0768 66.7969 67.8032 66.7969 67.5V61.5H68.25C70.3176 61.5 72 59.8176 72 57.75V42.75C72 40.6824 70.3176 39 68.25 39ZM37.1715 40.2535C36 38.8125 35.1848 37.2704 34.6817 35.5466H39.546C38.9718 37.4799 38.1936 39.022 37.1715 40.2535ZM43.1437 46.3821C43.166 46.3898 43.1894 46.3931 43.2129 46.3931C43.2905 46.3931 43.3612 46.3506 43.3982 46.2828L44.1965 44.811C44.2265 44.7554 44.2295 44.6899 44.2057 44.6302C44.1804 44.5716 44.1321 44.5276 44.072 44.5093C41.9326 43.86 39.9203 42.8232 38.5312 41.6583C39.9141 40.0302 40.9468 37.9746 41.6023 35.547H43.8325C43.9489 35.547 44.0438 35.4529 44.0438 35.3364V34.0071C44.0438 33.8907 43.9489 33.7961 43.8325 33.7961H38.0182V31.7109C38.0182 31.5949 37.9237 31.5 37.8076 31.5H36.3186C36.2018 31.5 36.1073 31.5949 36.1073 31.7109V33.7958H30.4167C30.3003 33.7958 30.2058 33.8903 30.2058 34.0064V35.3357C30.2058 35.4518 30.3003 35.5466 30.4167 35.5466H32.6854C33.3435 37.8186 34.4121 39.9155 35.7792 41.6214C34.6729 42.5845 32.8191 43.8801 30.1765 44.7048C30.115 44.7239 30.0667 44.7696 30.0425 44.8305C30.0194 44.8909 30.0249 44.9575 30.0582 45.0139L30.8734 46.3967C30.9111 46.4605 30.9807 46.5 31.0547 46.5C31.0807 46.5 31.1063 46.4953 31.1276 46.4865C33.3413 45.6709 35.4763 44.4434 37.1492 43.0232C38.6968 44.3687 40.9314 45.6207 43.1437 46.3821ZM56.332 52.2858H61.4333L58.8735 45.7973L56.332 52.2858ZM59.8989 43.5C59.9667 43.5 60.0286 43.5421 60.0535 43.6047L65.3306 56.7385C65.3503 56.7656 65.361 56.7993 65.361 56.8345C65.361 56.9253 65.2866 57 65.1958 57H63.3149C63.2472 57 63.1871 56.959 63.1611 56.8953L62.0376 54.059H55.708L54.5845 56.8949C54.5588 56.959 54.4984 57 54.4307 57H52.5549C52.4993 57 52.4473 56.9722 52.4172 56.9257C52.3868 56.8821 52.3799 56.8246 52.4011 56.7722L57.7119 43.6033C57.7375 43.5403 57.7972 43.5 57.865 43.5H59.8989Z" fill="#55566B"/>
<defs>
<linearGradient id="paint0_linear_13_689" x1="0" y1="0" x2="0" y2="96" gradientUnits="userSpaceOnUse">
<stop stop-color="#FAFAFA"/>
<stop offset="1" stop-color="#E9E9EC"/>
</linearGradient>
</defs>
</svg>
