<svg width="96" height="96" viewBox="0 0 96 96" fill="none" xmlns="http://www.w3.org/2000/svg">
<circle cx="48" cy="48" r="48" fill="url(#paint0_linear_13_679)"/>
<path fill-rule="evenodd" clip-rule="evenodd" d="M27.4286 61.7143H41.1429V65.1429H27.4286C25.5359 65.1407 24.0022 63.6069 24 61.7143V27.4286C24.0019 25.5358 25.5358 24.0019 27.4286 24H61.7143C63.6069 24.0022 65.1407 25.5359 65.1429 27.4286V37.7143H61.7143V27.4286H27.4286V46.5737L33.5758 40.4271C34.9147 39.0885 37.0853 39.0885 38.4242 40.4271L48 50.0023L45.5758 52.433L36 42.8571L27.4286 51.4228V61.7143ZM54.8572 36C54.8572 38.8403 52.5546 41.1429 49.7143 41.1429C46.8753 41.1397 44.5746 38.839 44.5714 36C44.5714 33.1597 46.874 30.8571 49.7143 30.8571C52.5546 30.8571 54.8572 33.1597 54.8572 36ZM51.4286 36C51.4286 35.0532 50.6611 34.2857 49.7143 34.2857C48.7679 34.2866 48.0009 35.0536 48 36C48 36.9468 48.7675 37.7143 49.7143 37.7143C50.6611 37.7143 51.4286 36.9468 51.4286 36ZM52.5702 50.1329C54.3348 46.7116 57.8648 44.5647 61.7143 44.5714C66.1557 44.5691 70.0964 47.4192 71.485 51.638C72.8736 55.8567 71.396 60.4902 67.8215 63.1263C64.247 65.7623 59.3838 65.805 55.7637 63.2319L46.9956 72L44.5714 69.5758L53.34 60.8078C51.1028 57.6751 50.8056 53.5542 52.5702 50.1329ZM54.8572 54.8571C54.8572 58.6442 57.9272 61.7143 61.7143 61.7143C65.4996 61.71 68.5672 58.6425 68.5714 54.8571C68.5714 51.0701 65.5014 48 61.7143 48C57.9272 48 54.8572 51.0701 54.8572 54.8571Z" fill="white"/>
<defs>
<linearGradient id="paint0_linear_13_679" x1="0" y1="0" x2="0" y2="96" gradientUnits="userSpaceOnUse">
<stop stop-color="#56577C"/>
<stop offset="1" stop-color="#2B2C46"/>
</linearGradient>
</defs>
</svg>
