<svg width="64" height="64" viewBox="0 0 64 64" fill="none" xmlns="http://www.w3.org/2000/svg">
<rect width="64" height="64" rx="4" fill="#D8D7F8"/>
<path fill-rule="evenodd" clip-rule="evenodd" d="M44 40.5714C44 41.0448 43.6162 41.4286 43.1429 41.4286H20.8571C20.3838 41.4286 20 41.0448 20 40.5714V26C20 25.5266 20.3838 25.1428 20.8571 25.1428H26.3943L27.86 22.9571C28.0177 22.7177 28.2847 22.5729 28.5714 22.5714H35.4286C35.7153 22.5729 35.9823 22.7177 36.14 22.9571L37.6057 25.1428H43.1429C43.6162 25.1428 44 25.5266 44 26V40.5714ZM21.7143 39.7143H42.2857V26.8571H37.1429C36.8561 26.8556 36.5891 26.7109 36.4314 26.4714L34.9657 24.2857H29.0343L27.5686 26.4714C27.4109 26.7109 27.1439 26.8556 26.8571 26.8571H21.7143V39.7143ZM32 38C29.1597 38 26.8571 35.6974 26.8571 32.8571C26.8571 30.0168 29.1597 27.7143 32 27.7143C34.8403 27.7143 37.1429 30.0168 37.1429 32.8571C37.1429 35.6974 34.8403 38 32 38ZM32 29.4286C30.1065 29.4286 28.5714 30.9636 28.5714 32.8571C28.5714 34.7507 30.1065 36.2857 32 36.2857C33.8935 36.2857 35.4286 34.7507 35.4286 32.8571C35.4286 30.9636 33.8935 29.4286 32 29.4286Z" fill="#3E36DC"/>
</svg>
